<?xml version="1.0" encoding="UTF-8"?>
<svg version="1.1" xmlns="http://www.w3.org/2000/svg" width="278" height="270">
<path d="M0 0 C91.74 0 183.48 0 278 0 C278 89.1 278 178.2 278 270 C186.26 270 94.52 270 0 270 C0 180.9 0 91.8 0 0 Z " fill="#75D0F5" transform="translate(0,0)"/>
<path d="M0 0 C2.5 0.25 2.5 0.25 4.5 2.25 C4.96859593 5.91694912 5.28613227 9.55932405 5.53515625 13.24609375 C6.13978507 20.12517259 8.30669163 25.25247856 12.375 30.8125 C14.48819133 32.55737373 14.48819133 32.55737373 17.5 32.0625 C19.08704239 31.63267602 20.6730709 31.19734308 22.24609375 30.71875 C34.73877482 28.12061875 45.56855661 31.11880317 56.25 37.5625 C60.35294639 40.27630597 63.78088373 43.20818536 67.0625 46.8671875 C68.56445324 48.51025627 68.56445324 48.51025627 71.5 49.25 C71.89445312 48.36248047 71.89445312 48.36248047 72.296875 47.45703125 C77.00156755 38.82666992 88.57567526 33.66385823 97.4609375 30.56640625 C100.60417211 30.07866295 103.69649234 30.07836082 106.875 30.0625 C108.16148437 30.04832031 109.44796875 30.03414062 110.7734375 30.01953125 C114.41145578 30.24452399 117.08552165 31.06010603 120.5 32.25 C123.1198978 32.76162667 123.1198978 32.76162667 125.5 32.25 C127.33998292 30.51214941 127.33998292 30.51214941 128.6875 28.125 C129.17605469 27.35929687 129.66460937 26.59359375 130.16796875 25.8046875 C133.64965693 19.12719756 133.86537734 12.93287773 134.15625 5.515625 C134.5 2.25 134.5 2.25 136.5 0.25 C138.875 -0.1171875 138.875 -0.1171875 141.5 0.25 C148.32676728 5.60280616 153.96241853 14.65491957 155.5 23.25 C156.3126162 35.31934881 155.58288409 44.22980795 147.75 53.9375 C143.70704087 59.38819861 144.05258978 64.02426281 144.37890625 70.6171875 C144.60083095 77.2749286 143.08533652 83.1559925 140.5 89.25 C140.5 90.24 140.5 91.23 140.5 92.25 C142.2015625 92.43175781 142.2015625 92.43175781 143.9375 92.6171875 C145.45836512 92.78617251 146.9791967 92.95545953 148.5 93.125 C149.24378906 93.20363281 149.98757812 93.28226562 150.75390625 93.36328125 C161.22637956 94.54712606 173.17750643 97.13471615 180.6875 105.125 C182.88445668 108.91285635 183.93209334 111.86128729 183.5 116.25 C182.15952965 120.18518198 180.1774228 122.77272484 176.75 125.1875 C176.0075 125.538125 175.265 125.88875 174.5 126.25 C174.83 127.095625 175.16 127.94125 175.5 128.8125 C176.9505395 133.79872952 177.13747196 137.53889104 175.3125 142.4375 C172.19313246 147.27789791 169.23726609 149.24542179 163.6875 150.5 C162.29418272 150.763662 160.89899699 151.0183578 159.5 151.25 C159.37044922 152.22839844 159.37044922 152.22839844 159.23828125 153.2265625 C158.24826834 159.38462442 157.10476955 162.96649344 152.5 167.25 C148.52013592 169.55413184 145.0387124 169.77083585 140.5 169.25 C125.5238283 163.68671234 114.0067776 151.35207869 105.5 138.25 C102.33702861 138.86867949 100.20009413 139.93214839 97.55859375 141.76171875 C96.81512695 142.26993164 96.07166016 142.77814453 95.30566406 143.30175781 C94.13342285 144.1114502 94.13342285 144.1114502 92.9375 144.9375 C73.48541652 158.10062268 73.48541652 158.10062268 66.5 157.25 C63.82897582 156.03380707 61.44256914 154.80297343 58.9375 153.3125 C58.24366211 152.91369629 57.54982422 152.51489258 56.83496094 152.10400391 C51.00871216 148.69803268 45.55773295 144.8645855 40.171875 140.8046875 C37.70054765 139.05865064 37.70054765 139.05865064 35.31640625 139.28515625 C33.06089368 140.48324572 32.12056819 141.70213157 30.6875 143.8125 C23.48241269 153.86028925 13.43650154 165.37364429 1.125 168.9375 C-3.81705333 169.52583968 -7.22450052 169.91227857 -11.75 167.5625 C-16.11676334 163.89044901 -17.53874049 161.03085904 -18.1875 155.4375 C-18.30355166 154.04260452 -18.41174084 152.64692939 -18.5 151.25 C-19.37011719 151.10304687 -19.37011719 151.10304687 -20.2578125 150.953125 C-25.47765436 149.95394735 -29.31525485 148.72027646 -33.5 145.25 C-37.1502677 139.43936979 -35.85259298 131.67481664 -34.5 125.25 C-35.263125 124.8375 -36.02625 124.425 -36.8125 124 C-39.59782721 122.18629856 -40.9884059 121.19363061 -42.5 118.25 C-43.02078848 113.63730201 -43.00681264 111.30585966 -41 107.125 C-30.56181966 95.12109261 -16.50697732 93.60133919 -1.5 92.25 C-1.62117188 91.70472656 -1.74234375 91.15945312 -1.8671875 90.59765625 C-2.22316311 88.99576598 -2.57431581 87.39279991 -2.921875 85.7890625 C-3.27130996 84.25438195 -3.64879101 82.7252101 -4.078125 81.2109375 C-5.27555338 76.78045248 -5.51361986 72.87076721 -5.33032227 68.26855469 C-4.91129544 61.96817455 -4.91129544 61.96817455 -6.65234375 56.05078125 C-7.67929408 54.97156882 -8.74045154 53.92395119 -9.83203125 52.91015625 C-15.57055082 47.19851499 -17.01557805 39.59955159 -17.125 31.8125 C-16.98239372 22.3713398 -11.55445261 1.15544526 0 0 Z " fill="#060709" transform="translate(68.5,59.75)"/>
<path d="M0 0 C6.58183401 4.32456666 13.81690179 9.89577537 17.5625 16.9375 C18.87644513 19.28399707 18.87644513 19.28399707 21.8125 19.8125 C26.07040303 18.72715217 27.03930148 16.75454757 29.4453125 13.2265625 C34.06185639 6.6149293 39.75675013 2.41686875 47 -1 C47.77472656 -1.36867188 48.54945313 -1.73734375 49.34765625 -2.1171875 C56.09818267 -4.36404902 65.51252581 -4.23724569 72.0625 -1.23046875 C78.45864013 2.83159605 84.79136558 8.01781202 87.44140625 15.30859375 C90.67201414 30.87424995 86.06064484 45.00029668 77.8125 58.296875 C65.69088705 76.37479776 44.73370617 99.46591149 23 106 C17.84330463 104.95009111 13.63271062 102.16699946 9.25 99.375 C8.54407715 98.92842041 7.8381543 98.48184082 7.11083984 98.02172852 C1.42239651 94.37193686 -3.89125882 90.43105102 -9 86 C-9.84046875 85.28070313 -10.6809375 84.56140625 -11.546875 83.8203125 C-26.72532839 70.52766695 -42.64679835 51.51429569 -44.2734375 30.4609375 C-44.62245898 20.59655179 -43.8654168 13.30194017 -36.91015625 5.72265625 C-26.84586771 -3.79110711 -12.69662883 -6.74136202 0 0 Z " fill="#F19DC1" transform="translate(116,102)"/>
<path d="M0 0 C4.34326278 0.60753973 5.98763668 3.47952024 8.69140625 6.71484375 C16.15069667 16.94688051 17.74327964 26.98489564 16.625 39.3671875 C15.31035002 45.29103201 12.6425886 49.38532312 8.875 54.0546875 C4.83204087 59.50538611 5.17758978 64.14145031 5.50390625 70.734375 C5.72583095 77.3921161 4.21033652 83.27318 1.625 89.3671875 C1.625 90.3571875 1.625 91.3471875 1.625 92.3671875 C3.3265625 92.54894531 3.3265625 92.54894531 5.0625 92.734375 C6.58336512 92.90336001 8.1041967 93.07264703 9.625 93.2421875 C10.36878906 93.32082031 11.11257812 93.39945312 11.87890625 93.48046875 C22.35137956 94.66431356 34.30250643 97.25190365 41.8125 105.2421875 C44.00945668 109.03004385 45.05709334 111.97847479 44.625 116.3671875 C43.28452965 120.30236948 41.3024228 122.88991234 37.875 125.3046875 C37.1325 125.6553125 36.39 126.0059375 35.625 126.3671875 C36.12 127.635625 36.12 127.635625 36.625 128.9296875 C38.0755395 133.91591702 38.26247196 137.65607854 36.4375 142.5546875 C33.31813246 147.39508541 30.36226609 149.36260929 24.8125 150.6171875 C23.41918272 150.8808495 22.02399699 151.1355453 20.625 151.3671875 C20.53863281 152.01945313 20.45226562 152.67171875 20.36328125 153.34375 C19.37326834 159.50181192 18.22976955 163.08368094 13.625 167.3671875 C9.64513592 169.67131934 6.1637124 169.88802335 1.625 169.3671875 C-13.3511717 163.80389984 -24.8682224 151.46926619 -33.375 138.3671875 C-36.345 138.6971875 -39.315 139.0271875 -42.375 139.3671875 C-42.0965625 138.160625 -42.0965625 138.160625 -41.8125 136.9296875 C-41.668125 136.0840625 -41.52375 135.2384375 -41.375 134.3671875 C-41.705 134.0371875 -42.035 133.7071875 -42.375 133.3671875 C-40.78838305 129.1461877 -37.61334566 126.68888976 -34.3125 123.8046875 C-20.11739533 111.0073631 -5.29220049 92.66513474 -4.171875 72.7578125 C-4.14677378 71.37774398 -4.13153633 69.9974688 -4.125 68.6171875 C-4.12105225 67.90288574 -4.11710449 67.18858398 -4.11303711 66.45263672 C-4.17286289 61.04611326 -5.14213618 57.22123928 -7.375 52.3671875 C-6.88 51.3771875 -6.88 51.3771875 -6.375 50.3671875 C-3.86756066 49.84143409 -1.36227722 49.53762272 1.1796875 49.22265625 C3.77446543 48.54571012 3.77446543 48.54571012 5.39453125 46.2890625 C6.91661767 42.67471126 7.26152731 39.29749547 7.4375 35.4296875 C7.48841797 34.73939453 7.53933594 34.04910156 7.59179688 33.33789062 C7.84022547 28.89565046 7.29291356 25.48223292 5.625 21.3671875 C4.965 21.3671875 4.305 21.3671875 3.625 21.3671875 C3.36847656 22.14964844 3.11195313 22.93210937 2.84765625 23.73828125 C1.66150805 26.87338677 0.50159283 29.5846533 -1.375 32.3671875 C-5.53092085 34.20860252 -9.15168596 33.77495885 -13.375 32.3671875 C-12.96507812 31.78710938 -12.55515625 31.20703125 -12.1328125 30.609375 C-11.59398437 29.82820313 -11.05515625 29.04703125 -10.5 28.2421875 C-9.96632812 27.47648437 -9.43265625 26.71078125 -8.8828125 25.921875 C-5.03461057 19.40186447 -5.00909933 13.03672033 -4.71875 5.6328125 C-4.31707306 1.81688155 -3.88524365 0.60067912 0 0 Z " fill="#060709" transform="translate(207.375,59.6328125)"/>
<path d="M0 0 C1.27399658 0.00491455 2.54799316 0.0098291 3.8605957 0.01489258 C17.61800333 0.18586285 33.63574172 0.68978436 43.9375 11.1875 C45.75 14.3125 45.75 14.3125 45.875 17.875 C44.32445657 22.61277158 42.20412925 24.83046091 37.9453125 27.40234375 C26.71387641 33.01806179 13.73762003 33.83515141 1.39819336 33.75854492 C-0.68410806 33.7500139 -2.76366799 33.77898977 -4.84570312 33.81054688 C-17.49156074 33.87682651 -32.7483452 32.58240712 -42.25 23.3125 C-44.04003568 20.44276026 -44.25117841 19.37731238 -44.1875 15.875 C-43.00403503 11.37783313 -41.99058428 10.09960201 -38.25 7.3125 C-26.02923927 0.92437507 -13.59203663 -0.06197387 0 0 Z " fill="#04090C" transform="translate(137.25,41.6875)"/>
<path d="M0 0 C1.65915434 0.2496354 3.31577703 0.51695271 4.96875 0.8046875 C5.68160156 0.92553711 6.39445312 1.04638672 7.12890625 1.17089844 C14.92213088 2.63880034 20.49310664 5.06829922 25.96875 10.8046875 C25.59375 12.7421875 25.59375 12.7421875 24.96875 14.8046875 C21.65880287 16.45966106 17.97752 15.90553085 14.34375 15.8671875 C13.54195312 15.86267578 12.74015625 15.85816406 11.9140625 15.85351562 C9.93225994 15.84171918 7.95049567 15.82378355 5.96875 15.8046875 C5.96875 18.1146875 5.96875 20.4246875 5.96875 22.8046875 C6.649375 23.0315625 7.33 23.2584375 8.03125 23.4921875 C12.10230042 25.31116747 16.91403984 27.69526718 18.96875 31.8046875 C19.21875 34.8046875 19.21875 34.8046875 18.96875 37.8046875 C15.79391555 39.9212438 15.30175995 40.03397899 11.73828125 39.78125 C10.93583984 39.7296875 10.13339844 39.678125 9.30664062 39.625 C8.47326172 39.56054688 7.63988281 39.49609375 6.78125 39.4296875 C5.5137793 39.34460938 5.5137793 39.34460938 4.22070312 39.2578125 C2.13603783 39.11647926 0.05228134 38.961855 -2.03125 38.8046875 C-2.71344419 41.16160573 -2.71344419 41.16160573 -3.03125 43.8046875 C-1.70778494 45.8112313 -0.37395821 47.81096925 0.96875 49.8046875 C1.45866613 53.96897463 1.32495437 55.27038094 -1.03125 58.8046875 C-10.48307862 59.12508847 -16.39452936 53.89413654 -23.03125 47.8046875 C-26.23638292 44.61816203 -29.19961973 41.32591738 -32.03125 37.8046875 C-32.505625 37.21558594 -32.98 36.62648437 -33.46875 36.01953125 C-35.80407636 32.84900137 -36.56933806 30.69997713 -36.03125 26.8046875 C-34.23046875 24.69140625 -34.23046875 24.69140625 -31.71875 22.4921875 C-28.29666241 19.3556705 -25.82736743 16.68588596 -23.62109375 12.59765625 C-17.54246969 1.49068652 -12.77463173 -1.36883919 0 0 Z " fill="#FBFBFB" transform="translate(217.03125,161.1953125)"/>
<path d="M0 0 C4.13911094 -0.38791269 7.36707393 -0.46299018 11.41796875 0.5078125 C14.91161713 3.86748617 17.0271363 7.57197531 19.36767578 11.77587891 C22.48698971 16.91962902 27.15081662 21.53824856 31.6796875 25.47265625 C33.41796875 27.5078125 33.41796875 27.5078125 33.8828125 29.9609375 C32.25254771 38.89314456 20.59216825 48.35681511 13.61328125 53.625 C5.46161187 59.12571999 5.46161187 59.12571999 -0.58203125 58.5078125 C-2.51953125 56.8828125 -2.51953125 56.8828125 -3.58203125 54.5078125 C-3.43217791 50.98625895 -2.84820225 48.92754369 -0.95703125 45.9453125 C0.70120136 43.56060552 0.70120136 43.56060552 0.10546875 40.6953125 C-0.12140625 39.9734375 -0.34828125 39.2515625 -0.58203125 38.5078125 C-2.53109375 38.7553125 -2.53109375 38.7553125 -4.51953125 39.0078125 C-7.83157334 39.36360849 -11.12716565 39.64845731 -14.45703125 39.7578125 C-15.53597656 39.79648438 -15.53597656 39.79648438 -16.63671875 39.8359375 C-19.17877932 39.4071562 -20.04780167 38.54546115 -21.58203125 36.5078125 C-21.7264435 33.25853696 -21.33117601 31.33707969 -19.12109375 28.890625 C-16.4190217 26.5189373 -13.82600009 24.63758316 -10.64453125 22.9453125 C-9.96390625 22.4709375 -9.28328125 21.9965625 -8.58203125 21.5078125 C-8.08143209 18.92263663 -8.08143209 18.92263663 -8.58203125 16.5078125 C-9.76213268 15.09622149 -9.76213268 15.09622149 -13.109375 15.4453125 C-15.32900974 15.4695047 -17.54815145 15.50830981 -19.76757812 15.546875 C-25.38174842 15.60795392 -25.38174842 15.60795392 -27.58203125 14.5078125 C-27.89453125 12.2578125 -27.89453125 12.2578125 -27.58203125 9.5078125 C-20.36690763 1.57117651 -9.79063075 1.38798473 0 0 Z " fill="#FBFBFB" transform="translate(62.58203125,161.4921875)"/>
<path d="M0 0 C2.38671875 -0.109375 2.38671875 -0.109375 5 0 C6.8125 1.75 6.8125 1.75 8 4 C8 5.32 8 6.64 8 8 C8.66 8 9.32 8 10 8 C10 9.32 10 10.64 10 12 C10.99 12 11.98 12 13 12 C13.99 13.485 13.99 13.485 15 15 C15.66 15 16.32 15 17 15 C17 13.02 17 11.04 17 9 C17.70125 9.680625 18.4025 10.36125 19.125 11.0625 C21.84732397 13.32109285 21.84732397 13.32109285 25.0625 12.8125 C26.62669874 12.37984928 28.18982514 11.9421161 29.7421875 11.46875 C42.23860769 8.8743375 53.06479864 11.86653614 63.75 18.3125 C67.85294639 21.02630597 71.28088373 23.95818536 74.5625 27.6171875 C76.06445324 29.26025627 76.06445324 29.26025627 79 30 C79.26296875 29.40832031 79.5259375 28.81664063 79.796875 28.20703125 C84.50156755 19.57666992 96.07567526 14.41385823 104.9609375 11.31640625 C108.10417211 10.82866295 111.19649234 10.82836082 114.375 10.8125 C115.66148437 10.79832031 116.94796875 10.78414062 118.2734375 10.76953125 C122 11 122 11 124.921875 12.00390625 C128.979861 13.317087 132.64409411 13.21822335 136.875 13.125 C137.65875 13.11597656 138.4425 13.10695313 139.25 13.09765625 C141.16680055 13.07428063 143.08344191 13.03841653 145 13 C145.44472656 11.61941406 145.44472656 11.61941406 145.8984375 10.2109375 C147.0115965 6.96619744 148.41012017 4.03522512 150 1 C150.99 1.33 151.98 1.66 153 2 C155.17162953 6.65551951 155.21500128 10.97553662 154.875 16 C154.85179687 16.68578125 154.82859375 17.3715625 154.8046875 18.078125 C154.49978528 23.07089881 153.33052949 26.26246949 150 30 C147.45703125 30.734375 147.45703125 30.734375 144.8125 30.75 C142.22831353 30.76124577 142.22831353 30.76124577 140 31 C139.67 31.66 139.34 32.32 139 33 C138.57589844 32.54109375 138.15179688 32.0821875 137.71484375 31.609375 C131.93157562 25.5591868 126.43044407 21.41252439 117.86328125 20.76171875 C106.26487986 20.51928792 98.63353194 23.26544093 90 31 C86.33914258 34.7839659 82.92261932 38.61607103 80 43 C77.3125 43.75 77.3125 43.75 74 43 C72.08809202 40.96916951 70.53594983 38.78803005 68.9140625 36.51953125 C63.22724412 29.03382135 55.37711504 22.82845356 46 21 C34.49551262 19.98575048 27.06196492 22.00875557 18 29 C18 27.68 18 26.36 18 25 C16.5833253 23.2488427 16.5833253 23.2488427 15 22 C12.40716671 23.07289654 11.14296513 23.79746606 9.5 26.125 C9.005 26.74375 8.51 27.3625 8 28 C6.68 28 5.36 28 4 28 C3.35004703 26.58521865 2.70521278 25.16808513 2.0625 23.75 C1.70285156 22.96109375 1.34320313 22.1721875 0.97265625 21.359375 C-1.03822239 16.48158102 -0.99255901 12.47991307 -0.5625 7.25 C-0.48418945 6.20392578 -0.48418945 6.20392578 -0.40429688 5.13671875 C-0.27525928 3.42403797 -0.13840386 1.71194934 0 0 Z " fill="#080609" transform="translate(61,79)"/>
<path d="M0 0 C1.22444824 0.16363037 1.22444824 0.16363037 2.47363281 0.33056641 C8.31922254 1.23895438 13.27641206 3.1160468 18.5625 5.75 C18.5625 6.74 18.5625 7.73 18.5625 8.75 C2.07592488 18.71063913 -22.17512925 17.9288761 -40.375 13.68359375 C-44.40135995 12.45617025 -47.81848281 10.89186732 -51.4375 8.75 C-51.4375 7.76 -51.4375 6.77 -51.4375 5.75 C-35.4073692 -2.55131773 -17.49427341 -2.42921965 0 0 Z " fill="#77CDEE" transform="translate(154.4375,51.25)"/>
<path d="M0 0 C2.38671875 -0.109375 2.38671875 -0.109375 5 0 C6.8125 1.75 6.8125 1.75 8 4 C8 5.32 8 6.64 8 8 C8.66 8 9.32 8 10 8 C10 9.32 10 10.64 10 12 C10.99 12 11.98 12 13 12 C13.99 13.485 13.99 13.485 15 15 C15.66 15 16.32 15 17 15 C17 13.02 17 11.04 17 9 C17.70125 9.680625 18.4025 10.36125 19.125 11.0625 C21.84732397 13.32109285 21.84732397 13.32109285 25.0625 12.8125 C26.62136588 12.38132433 28.1790695 11.94396465 29.72265625 11.4609375 C32.95431858 10.80684461 36.08049255 10.82893966 39.375 10.8125 C40.66148438 10.79832031 41.94796875 10.78414062 43.2734375 10.76953125 C46.91352288 10.99465183 49.65928552 11.561777 53 13 C53.495 13.99 53.495 13.99 54 15 C56.01669827 16.13350534 56.01669827 16.13350534 58 17 C57.34 19.31 56.68 21.62 56 24 C55.44054687 23.7834375 54.88109375 23.566875 54.3046875 23.34375 C46.17785609 20.5215706 37.32802865 19.17504531 29.0234375 22.01953125 C25.02292578 23.97258343 21.52122535 26.28339854 18 29 C18 27.68 18 26.36 18 25 C16.5833253 23.2488427 16.5833253 23.2488427 15 22 C12.40716671 23.07289654 11.14296513 23.79746606 9.5 26.125 C9.005 26.74375 8.51 27.3625 8 28 C6.68 28 5.36 28 4 28 C3.35004703 26.58521865 2.70521278 25.16808513 2.0625 23.75 C1.70285156 22.96109375 1.34320313 22.1721875 0.97265625 21.359375 C-1.03822239 16.48158102 -0.99255901 12.47991307 -0.5625 7.25 C-0.48418945 6.20392578 -0.48418945 6.20392578 -0.40429688 5.13671875 C-0.27525928 3.42403797 -0.13840386 1.71194934 0 0 Z " fill="#09070A" transform="translate(61,79)"/>
<path d="M0 0 C-0.33 0.5775 -0.66 1.155 -1 1.75 C-2.27075898 4.19883862 -2.27075898 4.19883862 -2 8 C-4.01325503 10.01325503 -5.53637273 10.81948499 -8.0625 12.0625 C-14.68757171 15.67423264 -20.41679827 20.98714408 -24.1875 27.5625 C-26 30 -26 30 -28.8125 30.9375 C-33.20154287 29.64660504 -34.47611192 27.17990461 -37.0625 23.53125 C-40.46188831 19.09011366 -44.94838694 14.52580653 -50 12 C-50.125 6.25 -50.125 6.25 -49 4 C-50.32 3.34 -51.64 2.68 -53 2 C-52.67 1.34 -52.34 0.68 -52 0 C-44.23489198 3.69480962 -38.44884583 7.95889846 -32.3125 13.92578125 C-30.09883005 16.18819143 -30.09883005 16.18819143 -27 17 C-26.73703125 16.40832031 -26.4740625 15.81664063 -26.203125 15.20703125 C-22.70067014 8.78207347 -16.00416646 5.21615728 -9.6875 2 C-8.77145996 1.52759888 -8.77145996 1.52759888 -7.83691406 1.0456543 C-3.37694268 -1.12564756 -3.37694268 -1.12564756 0 0 Z " fill="#09080C" transform="translate(167,92)"/>
<path d="M0 0 C0.99 0.33 1.98 0.66 3 1 C6.2758959 8.24145409 5.09700634 14.46226221 2.8515625 21.765625 C2 24 2 24 0 27 C-3.66128752 26.79078357 -5.47948819 25.85141649 -7.875 23.1875 C-10 20 -10 20 -9.8125 18.10546875 C-8.83582764 15.57457258 -7.5648232 13.42441913 -6.125 11.125 C-3.88341494 7.48242427 -1.83003195 3.86340078 0 0 Z " fill="#CC2632" transform="translate(211,80)"/>
<path d="M0 0 C3 1 3 1 4.75390625 4.08984375 C5.36685939 5.36760507 5.96934926 6.65042667 6.5625 7.9375 C8.74657485 12.81528109 8.74657485 12.81528109 12 17 C11.84717733 21.27903486 8.8517729 24.0819068 6 27 C4.68 27 3.36 27 2 27 C1.35004703 25.58521865 0.70521278 24.16808513 0.0625 22.75 C-0.29714844 21.96109375 -0.65679687 21.1721875 -1.02734375 20.359375 C-3.0745076 15.3935639 -4.0834691 10.23780882 -2.328125 4.9921875 C-1.60401667 3.30487846 -0.80765038 1.64895286 0 0 Z " fill="#D02533" transform="translate(63,80)"/>
<path d="M0 0 C1.2065625 0.0309375 1.2065625 0.0309375 2.4375 0.0625 C1.921875 0.805 1.40625 1.5475 0.875 2.3125 C-0.73314727 4.84113038 -0.73314727 4.84113038 -0.5 7.0625 C0.79399611 9.82302504 2.34314491 11.84846748 4.4375 14.0625 C6.56696603 14.93215506 6.56696603 14.93215506 8.4375 15.0625 C8.72625 14.11375 9.015 13.165 9.3125 12.1875 C10.4375 9.0625 10.4375 9.0625 12.4375 7.0625 C11.95879536 11.27510082 11.41977896 13.98190415 8.4375 17.0625 C5.9921875 17.6015625 5.9921875 17.6015625 3.3125 17.6875 C0.69736007 17.74689384 0.69736007 17.74689384 -1.5625 18.0625 C-1.8925 18.7225 -2.2225 19.3825 -2.5625 20.0625 C-3.2225 19.4025 -3.8825 18.7425 -4.5625 18.0625 C-4.12487193 14.88969649 -2.78888495 12.00582389 -1.5625 9.0625 C-2.2225 9.0625 -2.8825 9.0625 -3.5625 9.0625 C-3.66015625 2.91015625 -3.66015625 2.91015625 -3.5625 1.0625 C-2.5625 0.0625 -2.5625 0.0625 0 0 Z " fill="#080203" transform="translate(202.5625,91.9375)"/>
<path d="M0 0 C0.66 0 1.32 0 2 0 C4.21854707 4.62197306 5.38281159 7.76824163 5 13 C5.66 13 6.32 13 7 13 C6.67 13.99 6.34 14.98 6 16 C4.35 16.33 2.7 16.66 1 17 C1 17.66 1 18.32 1 19 C0.34 19 -0.32 19 -1 19 C-2.780283 12.8330997 -3.07598407 5.76747013 0 0 Z " fill="#E41F2F" transform="translate(64,81)"/>
<path d="M0 0 C1.32 0.33 2.64 0.66 4 1 C5.20408163 8.2244898 5.20408163 8.2244898 4.375 11.375 C2.48919437 13.60367938 0.78695341 14.2037276 -2 15 C-3.32 15 -4.64 15 -6 15 C-6.40541558 12.32425718 -6.33529091 10.55517372 -4.921875 8.21484375 C-4.03216303 7.01066461 -3.12249379 5.82091811 -2.19140625 4.6484375 C-0.79846811 2.89443093 -0.79846811 2.89443093 0 0 Z " fill="#EB1C2C" transform="translate(209,87)"/>
<path d="M0 0 C2.3125 -0.25 2.3125 -0.25 5 0 C6.8125 1.75 6.8125 1.75 8 4 C8 5.32 8 6.64 8 8 C8.66 8 9.32 8 10 8 C10 9.32 10 10.64 10 12 C10.99 12 11.98 12 13 12 C15.09350689 15.4019487 15.17942163 18.05272412 15 22 C14.01 22 13.02 22 12 22 C12.22171875 21.42894531 12.4434375 20.85789062 12.671875 20.26953125 C13.12264873 17.15167965 12.10641862 16.17598496 10.25 13.6875 C7.54630651 9.8897538 5.66386379 6.34453323 4 2 C3.34 2 2.68 2 2 2 C1.34 2.66 0.68 3.32 0 4 C0 2.68 0 1.36 0 0 Z " fill="#260001" transform="translate(61,79)"/>
<path d="M0 0 C2.375 0.3125 2.375 0.3125 5 1 C7.45391569 4.68087353 7.22802759 7.44355588 7.125 11.6875 C7.11597656 12.38939453 7.10695312 13.09128906 7.09765625 13.81445312 C7.07413704 15.54311525 7.03826713 17.27160145 7 19 C6.34 19 5.68 19 5 19 C5.02320313 18.27554688 5.04640625 17.55109375 5.0703125 16.8046875 C5.17018794 11.45421756 5.16455748 7.00553918 3 2 C2.34 2 1.68 2 1 2 C-0.65 5.63 -2.3 9.26 -4 13 C-4.33 13 -4.66 13 -5 13 C-5 11.35 -5 9.7 -5 8 C-4.34 8 -3.68 8 -3 8 C-3 6.35 -3 4.7 -3 3 C-2.34 3 -1.68 3 -1 3 C-0.67 2.01 -0.34 1.02 0 0 Z " fill="#290001" transform="translate(210,79)"/>
<path d="M0 0 C0.33 0.99 0.66 1.98 1 3 C-2.75 6 -2.75 6 -5 6 C-6.22517308 11.66642551 -6.09228867 17.23708518 -6 23 C-6.66 22.67 -7.32 22.34 -8 22 C-9.03207422 16.83962889 -10.16021991 10.78155285 -8.0859375 5.80859375 C-5.88858101 3.11919118 -3.25032581 1.20382438 0 0 Z " fill="#81CFED" transform="translate(221,111)"/>
<path d="M0 0 C0.66 0 1.32 0 2 0 C2.625 1.8125 2.625 1.8125 3 4 C1 7 1 7 -2 8 C-2.66 8.66 -3.32 9.32 -4 10 C-4.99 9.67 -5.98 9.34 -7 9 C-6.67 10.32 -6.34 11.64 -6 13 C-6.66 13 -7.32 13 -8 13 C-8.33 11.68 -8.66 10.36 -9 9 C-8.071875 8.443125 -7.14375 7.88625 -6.1875 7.3125 C-3.03023608 5.02193598 -1.85163926 3.33295067 0 0 Z " fill="#7BCAE7" transform="translate(251,177)"/>
<path d="M0 0 C0.20086443 3.71599191 0.1519437 4.77208445 -2 8 C-3.65 7.67 -5.3 7.34 -7 7 C-7 3 -7 3 -5 1 C-1.7 0 -1.7 0 0 0 Z " fill="#DB2232" transform="translate(213,99)"/>
<path d="M0 0 C0.75 1.625 0.75 1.625 1 4 C-0.4375 7.1875 -0.4375 7.1875 -3 10 C-5.76793609 10.81720018 -8.07728525 10.90257617 -11 11 C-11 8.36 -11 5.72 -11 3 C-10.4225 3.639375 -9.845 4.27875 -9.25 4.9375 C-7.01937599 6.98223868 -5.92563609 7.58205199 -3 8 C-2.690625 7.05125 -2.38125 6.1025 -2.0625 5.125 C-1 2 -1 2 0 0 Z " fill="#2B0205" transform="translate(214,99)"/>
<path d="M0 0 C1.0730756 3.2192268 0.79946725 3.90206442 0 7 C0.33 7.66 0.66 8.32 1 9 C-4.75 7.375 -4.75 7.375 -7 4 C-4.61426621 2.10786631 -2.92824652 0.97608217 0 0 Z " fill="#7FCBE8" transform="translate(109,54)"/>
<path d="M0 0 C0.33 0.99 0.66 1.98 1 3 C-5.75 5 -5.75 5 -8 5 C-8 6.32 -8 7.64 -8 9 C-8.66 9 -9.32 9 -10 9 C-10 7.02 -10 5.04 -10 3 C-8.906875 2.690625 -7.81375 2.38125 -6.6875 2.0625 C-4.44592006 1.41662103 -2.2130649 0.7376883 0 0 Z " fill="#82D2EF" transform="translate(237,208)"/>
<path d="M0 0 C0.99 0.33 1.98 0.66 3 1 C3.6875 3.0625 3.6875 3.0625 4 5 C7.37503669 3.8141763 9.64722731 2.72426311 12 0 C11.38722388 2.96175123 10.74627478 4.38058783 9 7 C7.0546875 7.29296875 7.0546875 7.29296875 4.875 7.1875 C3.59625 7.125625 2.3175 7.06375 1 7 C0.67 4.69 0.34 2.38 0 0 Z " fill="#260103" transform="translate(61,102)"/>
<path d="M0 0 C1.65 0.33 3.3 0.66 5 1 C4.01 1.495 4.01 1.495 3 2 C3.33 3.65 3.66 5.3 4 7 C3.01 7.33 2.02 7.66 1 8 C1 7.34 1 6.68 1 6 C-0.32 5.67 -1.64 5.34 -3 5 C-2.01 3.35 -1.02 1.7 0 0 Z " fill="#7BD2F4" transform="translate(103,198)"/>
<path d="M0 0 C0.99 0.99 1.98 1.98 3 3 C1.576875 3.12375 1.576875 3.12375 0.125 3.25 C-1.421875 3.62125 -1.421875 3.62125 -3 4 C-4.16666667 5.91666667 -4.16666667 5.91666667 -5 8 C-7.125 9.25 -7.125 9.25 -9 10 C-9 8.68 -9 7.36 -9 6 C-7.03125 4.296875 -7.03125 4.296875 -4.5 2.75 C-3.6646875 2.22921875 -2.829375 1.7084375 -1.96875 1.171875 C-1.3190625 0.78515625 -0.669375 0.3984375 0 0 Z " fill="#79C8E2" transform="translate(164,202)"/>
<path d="M0 0 C1.2065625 0.0309375 1.2065625 0.0309375 2.4375 0.0625 C1.6640625 1.1453125 1.6640625 1.1453125 0.875 2.25 C-0.77692982 5.4820366 -0.62601675 6.67858307 0.4375 10.0625 C-0.8825 9.7325 -2.2025 9.4025 -3.5625 9.0625 C-3.66015625 2.91015625 -3.66015625 2.91015625 -3.5625 1.0625 C-2.5625 0.0625 -2.5625 0.0625 0 0 Z " fill="#200102" transform="translate(202.5625,91.9375)"/>
<path d="M0 0 C1.051875 0.66 2.10375 1.32 3.1875 2 C6.26623937 3.7771585 8.38596328 4.43806506 12 4 C12 4.66 12 5.32 12 6 C9.34501768 7.0169313 8.30844625 7.13022151 5.640625 6.00390625 C4.85171875 5.52824219 4.0628125 5.05257812 3.25 4.5625 C2.45078125 4.08941406 1.6515625 3.61632812 0.828125 3.12890625 C0.22484375 2.75636719 -0.3784375 2.38382813 -1 2 C-0.67 1.34 -0.34 0.68 0 0 Z " fill="#E1A2BD" transform="translate(129,201)"/>
<path d="M0 0 C0.66 0.99 1.32 1.98 2 3 C-0.64 5.31 -3.28 7.62 -6 10 C-6 6.41087588 -5.33563446 5.89142971 -3 3.3125 C-2.443125 2.68988281 -1.88625 2.06726562 -1.3125 1.42578125 C-0.879375 0.95527344 -0.44625 0.48476563 0 0 Z " fill="#02101A" transform="translate(66,60)"/>
<path d="M0 0 C-1.3418344 4.02550319 -3.4227573 4.88285636 -7 7 C-7.66 7 -8.32 7 -9 7 C-7.16766277 2.5718517 -4.96404317 0 0 0 Z " fill="#80CEEC" transform="translate(88,218)"/>
<path d="M0 0 C2.33333333 2.33333333 4.66666667 4.66666667 7 7 C6.625 10.125 6.625 10.125 6 13 C5.67 13 5.34 13 5 13 C4.731875 11.9275 4.46375 10.855 4.1875 9.75 C3.12368849 6.39059522 2.16633521 4.65868412 0 2 C0 1.34 0 0.68 0 0 Z " fill="#7EC2DD" transform="translate(57,111)"/>
<path d="M0 0 C0 0.99 0 1.98 0 3 C-0.99 3.33 -1.98 3.66 -3 4 C-3.33 4.66 -3.66 5.32 -4 6 C-5.32 5.67 -6.64 5.34 -8 5 C-8 4.34 -8 3.68 -8 3 C-5.36 2.01 -2.72 1.02 0 0 Z " fill="#7AC9E4" transform="translate(171,70)"/>
<path d="M0 0 C0.78375 0.04125 1.5675 0.0825 2.375 0.125 C1.055 0.455 -0.265 0.785 -1.625 1.125 C-2.285 4.755 -2.945 8.385 -3.625 12.125 C-3.955 12.125 -4.285 12.125 -4.625 12.125 C-4.67895478 10.50036158 -4.71777195 8.87521459 -4.75 7.25 C-4.77320313 6.34507813 -4.79640625 5.44015625 -4.8203125 4.5078125 C-4.53030547 0.96972669 -3.50613188 0.16695866 0 0 Z " fill="#011420" transform="translate(207.625,59.875)"/>
<path d="M0 0 C1.485 0.99 1.485 0.99 3 2 C2.34 2 1.68 2 1 2 C1.165 2.70125 1.33 3.4025 1.5 4.125 C2.02415338 7.13888194 2.07099683 9.94713625 2 13 C-0.47532211 10.52467789 -0.38704795 9.36068317 -0.6875 5.9375 C-0.77386719 5.03902344 -0.86023437 4.14054688 -0.94921875 3.21484375 C-0.96597656 2.48394531 -0.98273437 1.75304687 -1 1 C-0.67 0.67 -0.34 0.34 0 0 Z " fill="#041017" transform="translate(51,209)"/>
<path d="M0 0 C0.66 0.66 1.32 1.32 2 2 C0.44499019 5.81684226 -2.03595495 8.19195732 -5 11 C-5.66 10.67 -6.32 10.34 -7 10 C-3.535 5.05 -3.535 5.05 0 0 Z " fill="#1C0A11" transform="translate(195,157)"/>
<path d="M0 0 C-2.97 2.475 -2.97 2.475 -6 5 C-6 4.34 -6 3.68 -6 3 C-7.65 3.33 -9.3 3.66 -11 4 C-3.77464789 -1.88732394 -3.77464789 -1.88732394 0 0 Z " fill="#05131B" transform="translate(166,92)"/>
<path d="M0 0 C0.33 0.66 0.66 1.32 1 2 C-1.77280706 5.08089673 -4.06326356 6.68775452 -8 8 C-8 7.34 -8 6.68 -8 6 C-6.25 4.4921875 -6.25 4.4921875 -4 2.875 C-3.2575 2.33617187 -2.515 1.79734375 -1.75 1.2421875 C-1.1725 0.83226562 -0.595 0.42234375 0 0 Z " fill="#1B0811" transform="translate(164,191)"/>
<path d="M0 0 C0.99 0.33 1.98 0.66 3 1 C2.67 2.32 2.34 3.64 2 5 C1.34 4.67 0.68 4.34 0 4 C0 5.65 0 7.3 0 9 C-0.66 8.67 -1.32 8.34 -2 8 C-1.47731534 5.23723823 -0.89130413 2.6739124 0 0 Z " fill="#7CC2DC" transform="translate(210,144)"/>
<path d="M0 0 C0.33 0.99 0.66 1.98 1 3 C-1.31 4.98 -3.62 6.96 -6 9 C-6.66 8.67 -7.32 8.34 -8 8 C-5.36 5.36 -2.72 2.72 0 0 Z " fill="#EBA6C5" transform="translate(154,106)"/>
<path d="M0 0 C1.32 0.33 2.64 0.66 4 1 C3.6875 2.9375 3.6875 2.9375 3 5 C2.01 5.33 1.02 5.66 0 6 C-2.1875 4.5625 -2.1875 4.5625 -4 3 C-2.35 2.67 -0.7 2.34 1 2 C0.67 1.34 0.34 0.68 0 0 Z " fill="#70C2E0" transform="translate(72,56)"/>
<path d="M0 0 C1.65 1.65 3.3 3.3 5 5 C2.69 4.67 0.38 4.34 -2 4 C-1.34 2.68 -0.68 1.36 0 0 Z " fill="#79C7E7" transform="translate(52,222)"/>
<path d="M0 0 C-1.36983503 3.16115776 -1.9890638 3.9927092 -5 6 C-5.33 5.01 -5.66 4.02 -6 3 C-3.375 0 -3.375 0 0 0 Z " fill="#11232A" transform="translate(93,210)"/>
<path d="M0 0 C1.65 0.99 3.3 1.98 5 3 C4.67 3.66 4.34 4.32 4 5 C1.9375 5.625 1.9375 5.625 0 6 C0 4.02 0 2.04 0 0 Z " fill="#14060B" transform="translate(103,185)"/>
<path d="M0 0 C0.33 1.32 0.66 2.64 1 4 C-0.65 4.33 -2.3 4.66 -4 5 C-3.6875 3.0625 -3.6875 3.0625 -3 1 C-2.01 0.67 -1.02 0.34 0 0 Z " fill="#EE1B2B" transform="translate(72,97)"/>
<path d="M0 0 C0.99 0.99 1.98 1.98 3 3 C1.02 3.99 1.02 3.99 -1 5 C-1 5.66 -1 6.32 -1 7 C-1.66 7 -2.32 7 -3 7 C-3 6.01 -3 5.02 -3 4 C-2.34 4 -1.68 4 -1 4 C-0.67 2.68 -0.34 1.36 0 0 Z " fill="#ED1A2A" transform="translate(66,93)"/>
<path d="M0 0 C2.625 0.375 2.625 0.375 5 1 C4.01 1.495 4.01 1.495 3 2 C2.67 2.99 2.34 3.98 2 5 C0.68 4.01 -0.64 3.02 -2 2 C-1.34 1.34 -0.68 0.68 0 0 Z " fill="#7AC7E2" transform="translate(103,198)"/>
<path d="M0 0 C0 0.66 0 1.32 0 2 C-5.41176471 6 -5.41176471 6 -8 6 C-6.72879117 2.18637351 -4.19078006 0 0 0 Z " fill="#04121D" transform="translate(40,158)"/>
</svg>
